<svg width="900" height="1000" viewBox="0 0 900 1000" fill="none" xmlns="http://www.w3.org/2000/svg">
  <rect width="900" height="1000" rx="80" fill="url(#bg)"/>
  <circle cx="450" cy="430" r="260" fill="#101322"/>
  <path d="M254 392C274 250 345 160 461 160C585 160 653 254 666 398C696 409 708 439 696 486L676 565C659 634 617 692 562 726V812C562 839 540 861 513 861H388C361 861 339 839 339 812V727C285 694 244 636 225 565L205 486C191 438 206 405 254 392Z" fill="#F7F7FF"/>
  <path d="M268 378C300 278 365 228 462 228C560 228 625 281 654 386C609 352 549 334 473 334C394 334 326 349 268 378Z" fill="#080914"/>
  <path d="M230 407C338 376 418 385 470 433C525 384 605 374 690 408C688 444 676 475 655 501C579 516 521 506 481 468C442 506 383 518 304 503C258 471 233 439 230 407Z" fill="#080914"/>
  <path d="M335 615C411 658 489 660 566 615C542 688 362 690 335 615Z" fill="#080914"/>
  <path d="M365 625C423 648 480 648 536 625C517 659 386 661 365 625Z" fill="#fff"/>
  <path d="M436 512C426 553 406 586 376 611C431 625 479 624 524 609C494 585 475 553 465 512C455 526 445 526 436 512Z" fill="#D9DCE8"/>
  <path d="M312 717C386 782 518 787 596 719V817C596 865 557 904 509 904H397C349 904 310 865 310 817L312 717Z" fill="#101322"/>
  <path d="M244 352C251 221 338 85 461 92C564 98 647 155 697 262C719 309 719 358 697 408C648 262 573 188 472 186C361 184 286 239 244 352Z" fill="#7CF7D4"/>
  <path d="M598 110C677 145 723 198 737 269C644 220 557 193 477 187C505 151 546 125 598 110Z" fill="#8E7CFF"/>
  <defs>
    <linearGradient id="bg" x1="0" y1="0" x2="900" y2="1000" gradientUnits="userSpaceOnUse">
      <stop stop-color="#7CF7D4" stop-opacity=".25"/>
      <stop offset=".55" stop-color="#080914"/>
      <stop offset="1" stop-color="#8E7CFF" stop-opacity=".35"/>
    </linearGradient>
  </defs>
</svg>
